<svg width="345" height="481" viewBox="0 0 345 481" fill="none" xmlns="http://www.w3.org/2000/svg">
<rect width="345" height="481" rx="30" fill="#E7EDFF"/>
<g clip-path="url(#clip0_131_391)">
<path d="M49 -0.000244141C49 -0.000244141 157 11.4999 172 69.9999C209.608 216.669 65.5 192.5 54 314C36.6644 497.154 249.579 489.338 348.5 444.5" stroke="white" stroke-width="2" stroke-linecap="round" stroke-dasharray="5 5"/>
<circle cx="145" cy="33" r="7" fill="white"/>
<circle cx="145" cy="33" r="5" fill="#EBF0FE"/>
<circle cx="59" cy="289" r="7" fill="white"/>
<circle cx="59" cy="289" r="5" fill="#EBF0FE"/>
<circle cx="63.5" cy="190.5" r="22.5" fill="#F2DF85"/>
<path d="M58.865 180.952C58.5311 180.955 58.1415 180.966 57.8235 181.03C57.6287 181.069 57.4697 181.129 57.3942 181.183C57.3465 181.215 57.3306 181.232 57.3226 181.249L58.2608 183.602C58.2608 183.6 58.2647 183.598 58.2647 183.597C58.4675 183.306 58.7259 183.064 59.0836 183.064H59.9184L58.865 180.952ZM67.8013 180.952L66.7478 183.064H67.5826C67.9444 183.064 68.1988 183.311 68.4015 183.606L69.3437 181.249C69.3357 181.232 69.3198 181.215 69.2721 181.183C69.1966 181.129 69.0376 181.069 68.8428 181.03C68.5248 180.966 68.1352 180.956 67.8013 180.952ZM63.3331 181.471C62.0929 181.471 60.8486 182.121 60.8486 183.422H61.5642C61.5642 181.775 65.1021 181.775 65.1021 183.422H65.8176C65.8176 182.121 64.5734 181.471 63.3331 181.471ZM59.0836 183.779C59.0836 183.779 58.9922 183.803 58.8531 184.008C58.71 184.207 58.547 184.544 58.3919 184.982C58.0819 185.856 57.7837 187.132 57.5293 188.626C57.0288 191.595 56.6997 195.45 56.6953 198.948C56.7486 198.984 56.8726 199.043 57.0443 199.095C57.3902 199.202 57.9229 199.302 58.5668 199.381C59.8548 199.536 61.596 199.616 63.3331 199.616C65.0703 199.616 66.8114 199.536 68.0994 199.381C68.7434 199.302 69.2761 199.202 69.6219 199.095C69.7929 199.043 69.9161 198.984 69.9717 198.948C69.9678 195.566 69.6378 191.714 69.1369 188.714C68.8825 187.203 68.5844 185.908 68.2743 185.013C68.1153 184.568 67.9563 184.222 67.8132 184.012C67.6701 183.804 67.5747 183.779 67.5826 183.779H59.0836ZM63.3331 184.672C64.2514 184.672 65.1697 184.834 65.925 185.18C66.6842 185.526 67.3044 186.079 67.4952 186.85L67.4992 186.854L68.7434 192.271H57.9229L59.1671 186.854L59.1711 186.85C59.3619 186.079 59.982 185.526 60.7413 185.18C61.4966 184.834 62.4149 184.672 63.3331 184.672ZM63.3331 185.387C62.5023 185.387 61.6715 185.542 61.0355 185.832C60.4034 186.122 59.99 186.524 59.8628 187.02L58.8213 191.555H67.845L66.8035 187.02C66.6763 186.524 66.2629 186.122 65.6308 185.832C64.9948 185.542 64.164 185.387 63.3331 185.387ZM60.789 187.215H65.8773V187.931H62.4188V188.988H61.7033V187.931H60.789V187.215ZM58.0143 193.328H58.7298C58.7298 194.715 58.9127 195.733 59.2228 196.357C59.5368 196.977 59.9105 197.219 60.4988 197.219H66.1675C66.7558 197.219 67.1295 196.977 67.4435 196.357C67.7536 195.733 67.9364 194.715 67.9364 193.328H68.652C68.652 194.775 68.4771 195.884 68.0795 196.675C67.682 197.47 66.9943 197.935 66.1675 197.935H60.4988C59.672 197.935 58.9842 197.47 58.5867 196.675C58.1892 195.884 58.0143 194.775 58.0143 193.328Z" fill="#00264B"/>
<path d="M316.668 172.487C316.668 172.487 316.301 172.672 315.635 172.496L313.541 172.013L313.496 158.082L318.329 151.876L321.43 152.803L322.518 155.057L322.074 167.745L316.668 172.487Z" fill="#2F2F2F"/>
<path d="M329.426 154.627C329.428 154.624 329.431 154.627 329.433 154.622C329.433 154.622 328.327 148.473 322.806 148.242C321.655 148.195 320.781 148.38 320.117 148.65C319.494 147.05 317.588 145.863 315.914 146.013C315.78 146.024 315.649 146.044 315.52 146.074C314.836 146.228 313.911 146.602 313.374 147.062C313.025 147.361 312.699 147.707 312.452 148.095C312.436 148.12 312.4 148.185 312.357 148.265C311.374 148.099 310.393 148.018 309.443 148.074C308.286 148.145 306.944 148.469 305.936 149.067C304.781 149.753 303.521 150.929 302.823 152.087C301.416 154.427 301.138 157.343 301.045 160.03C300.965 162.241 300.979 164.441 301.19 166.646C301.271 167.491 301.292 168.397 301.62 169.195C302.148 170.486 303.587 171.032 304.781 171.519C306.382 172.172 308.048 172.62 309.693 173.15C310.776 173.502 311.877 173.932 313.034 173.819C313.494 173.773 313.936 173.601 314.244 173.236C314.942 172.414 314.625 170.907 314.595 169.917C314.555 168.606 314.509 167.291 314.534 165.98C314.58 163.345 314.874 160.68 315.862 158.222C316.304 157.126 316.913 156.099 317.681 155.207C318.334 154.445 319.557 153.686 320.583 153.682C322.185 153.675 321.945 155.458 321.834 156.87L319.571 157.712C319.571 157.712 317.221 158.399 316.535 159.591C315.837 160.798 315.837 163.13 315.837 163.13C315.837 163.13 315.839 170.588 315.839 171.564C315.839 172.96 316.999 172.382 316.999 172.382L323.298 169.247C326.793 167.713 328.864 163.85 329.528 160.25C329.807 158.757 329.938 156.559 329.426 154.627ZM323.295 156.326C323.311 155.028 323.198 153.725 322.525 152.601L322.541 152.565C322.604 152.239 322.779 152.03 323.005 151.892C324.075 152.395 324.999 152.977 325.445 154.096C326.191 155.963 326.05 158.122 325.89 159.271C325.629 161.136 324.621 163.381 323.3 164.797L323.295 156.326Z" fill="#58718F"/>
<path d="M318.371 150.021C317.714 149.783 317.032 149.54 316.341 149.312C316.568 148.829 317.021 148.362 317.556 148.315C318.26 148.254 318.668 148.768 318.96 149.35C318.639 149.629 318.453 149.887 318.371 150.021ZM328.557 160.212C328.045 163.277 326.276 166.388 323.303 168.069V166.095C325.281 164.523 326.396 161.788 326.759 159.543C327.003 158.023 326.928 156.344 326.607 154.831C326.584 154.729 326.559 154.629 326.53 154.529C326.233 153.499 325.623 152.683 324.753 152.087C324.724 152.039 324.665 151.994 324.651 151.949C324.554 151.641 325.277 151.754 325.703 151.84H325.705C325.753 151.851 325.796 151.858 325.834 151.867C326.19 151.962 326.521 152.128 326.849 152.293C327.409 152.696 327.733 153.064 327.783 153.125C329.051 155.06 328.92 158.046 328.557 160.212ZM303.926 168.751C303.826 168.916 303.672 169.029 303.445 169.041C302.462 169.084 302.432 167.709 302.795 167.095C302.976 166.789 303.409 166.691 303.67 166.963C304.016 167.326 304.188 168.311 303.926 168.751ZM312.193 171.565C312.084 171.746 311.916 171.868 311.669 171.88C310.598 171.927 310.568 170.43 310.963 169.763C311.162 169.43 311.631 169.324 311.912 169.618C312.29 170.015 312.478 171.089 312.193 171.565ZM307.387 151.38L305.815 150.925C305.43 151.236 305.071 151.578 304.743 151.949L306.343 152.411C306.717 151.944 307.084 151.609 307.387 151.38ZM305.575 153.603L303.916 153.122C303.16 154.511 302.811 156.145 302.641 157.833L304.426 158.349C304.526 156.249 304.995 154.711 305.575 153.603Z" fill="white"/>
<path d="M60.8728 23.5864L56.6504 22.4651L57.4183 19.6402C57.4803 19.4179 57.6276 19.229 57.8283 19.1147C58.0289 19.0005 58.2666 18.9701 58.4895 19.0302L61.0201 19.7096C61.1304 19.7387 61.2339 19.7894 61.3245 19.8586C61.4152 19.9279 61.4913 20.0143 61.5484 20.113C61.6056 20.2117 61.6427 20.3207 61.6577 20.4338C61.6726 20.5469 61.6651 20.6618 61.6355 20.7719L60.8728 23.5864ZM53.0381 36.3346C52.9904 36.1791 52.9874 36.0134 53.0295 35.8563L56.1824 24.1999L60.4031 25.3211L57.2501 36.9776C57.2078 37.1351 57.1219 37.2774 57.0023 37.3883L54.4768 39.7227C54.4442 39.7524 54.4046 39.7734 54.3618 39.7838C54.3189 39.7942 54.2741 39.7937 54.2315 39.7823C54.1889 39.7709 54.1499 39.749 54.1179 39.7186C54.086 39.6882 54.0622 39.6503 54.0487 39.6083L53.0381 36.3346ZM68.6 25.9312C64.7 25.9312 63.4 24.6314 63.4 20.7321C67.3 20.7321 68.6 22.0318 68.6 25.9312ZM66.1733 39.7678C63.7987 40.1317 60.7549 36.8112 60.072 33.1822L61.6129 27.4909C62.3045 26.8843 63.1781 26.5672 64.0725 26.5672C65.0422 26.5621 65.9895 26.8582 66.7835 27.4147C67.0628 27.6033 67.3929 27.7026 67.73 27.6995C68.067 27.6964 68.3952 27.591 68.6711 27.3973C69.4032 26.8553 70.2908 26.5642 71.2017 26.5672C72.5364 26.5672 74.0496 27.4147 74.7551 28.6486C77.4175 33.3208 72.6855 40.2755 69.3055 39.7695C69.1508 39.7384 69.0018 39.6841 68.8635 39.6083C68.5142 39.4297 68.1274 39.3366 67.7351 39.3366C67.3427 39.3366 66.956 39.4297 66.6067 39.6083C66.4709 39.6827 66.3249 39.7364 66.1733 39.7678Z" fill="#58718F"/>
<circle cx="290.201" cy="324.201" r="25.2007" fill="#F2DF85"/>
<path d="M290.003 316.912L287.292 329.633C287.076 330.645 287.194 331.024 287.938 331.751L290.945 334.69C291.342 335.078 291.539 335.272 291.786 335.272C292.033 335.272 292.23 335.078 292.627 334.69L295.634 331.751C296.378 331.024 296.496 330.645 296.28 329.633L293.57 316.912M288.408 313.612C288.33 313.01 288.292 312.71 288.468 312.516C288.645 312.322 288.957 312.322 289.581 312.322H293.992C294.615 312.322 294.927 312.322 295.104 312.517C295.28 312.71 295.242 313.01 295.164 313.612L295.106 314.065C294.942 315.336 294.861 315.972 294.452 316.384C294.385 316.452 294.313 316.514 294.236 316.569C293.765 316.912 293.105 316.912 291.786 316.912C290.466 316.912 289.807 316.912 289.336 316.569C289.259 316.513 289.188 316.452 289.121 316.385C288.711 315.972 288.63 315.336 288.467 314.065L288.408 313.612Z" stroke="#00264B" stroke-width="1.5" stroke-linecap="round" stroke-linejoin="round"/>
<path d="M287.771 327.239C287.073 328.035 286.483 328.387 286.05 328.387C285.494 328.387 284.493 326.987 284.049 325.971C283.84 325.496 283.736 325.258 283.756 324.957C283.777 324.655 283.914 324.436 284.187 323.995C285.731 321.505 288.362 319.23 290.067 316.912" stroke="#00264B" stroke-width="1.5" stroke-linecap="round" stroke-linejoin="round"/>
</g>
<defs>
<clipPath id="clip0_131_391">
<rect width="345" height="481" rx="30" fill="white"/>
</clipPath>
</defs>
</svg>
