<svg width="593" height="254" viewBox="0 0 593 254" fill="none" xmlns="http://www.w3.org/2000/svg">
<g clip-path="url(#clip0_0_1)">
<path d="M591.5 1C591.5 1 562.72 86.9049 506.5 103.5C393.5 136.855 321 48.5 226 45.5C38.8646 39.5905 26.5 256.5 26.5 256.5" stroke="white" stroke-width="2" stroke-linecap="round" stroke-dasharray="5 5"/>
<circle cx="571" cy="44" r="7" fill="white"/>
<circle cx="571" cy="44" r="5" fill="#EBF0FE"/>
<circle cx="53" cy="155" r="7" fill="white"/>
<circle cx="53" cy="155" r="5" fill="#EBF0FE"/>
</g>
<circle cx="479.5" cy="33.5" r="22.5" fill="#F2DF85"/>
<path d="M474.867 23.9521C474.533 23.9553 474.143 23.9657 473.825 24.0297C473.631 24.0686 473.472 24.129 473.396 24.1831C473.348 24.2149 473.333 24.2316 473.325 24.2494L474.263 26.602C474.263 26.6004 474.267 26.5984 474.267 26.5968C474.469 26.3059 474.728 26.0638 475.086 26.0638H475.92L474.867 23.9521ZM483.803 23.9521L482.75 26.0638H483.585C483.946 26.0638 484.201 26.311 484.403 26.6063L485.346 24.2494C485.338 24.2316 485.322 24.2149 485.274 24.1831C485.199 24.129 485.04 24.0686 484.845 24.0297C484.527 23.9657 484.137 23.9561 483.803 23.9521ZM479.335 24.4708C478.095 24.4708 476.851 25.1211 476.851 26.4215H477.566C477.566 24.7753 481.104 24.7753 481.104 26.4215H481.82C481.82 25.1211 480.575 24.4708 479.335 24.4708ZM475.086 26.7792C475.086 26.7792 474.994 26.8035 474.855 27.0078C474.712 27.2065 474.549 27.5443 474.394 27.9815C474.084 28.8559 473.786 30.1318 473.531 31.6262C473.031 34.5952 472.702 38.4505 472.697 41.9481C472.751 41.9839 472.875 42.0435 473.046 42.0951C473.392 42.2024 473.925 42.3018 474.569 42.3813C475.857 42.5363 477.598 42.6158 479.335 42.6158C481.072 42.6158 482.813 42.5363 484.101 42.3813C484.745 42.3018 485.278 42.2024 485.624 42.0951C485.795 42.0435 485.918 41.9839 485.974 41.9481C485.97 38.5657 485.64 34.7144 485.139 31.7136C484.884 30.2033 484.586 28.9076 484.276 28.0133C484.117 27.5682 483.958 27.2224 483.815 27.0118C483.672 26.8039 483.577 26.7792 483.585 26.7792H475.086ZM479.335 27.6715C480.253 27.6715 481.172 27.8345 481.927 28.1803C482.686 28.5261 483.306 29.0785 483.497 29.8496L483.501 29.8535L484.745 35.2708H473.925L475.169 29.8535L475.173 29.8496C475.364 29.0785 475.984 28.5261 476.743 28.1803C477.499 27.8345 478.417 27.6715 479.335 27.6715ZM479.335 28.3869C478.504 28.3869 477.673 28.5419 477.037 28.8321C476.405 29.1222 475.992 29.5237 475.865 30.0205L474.823 34.5554H483.847L482.805 30.0205C482.678 29.5237 482.265 29.1222 481.633 28.8321C480.997 28.5419 480.166 28.3869 479.335 28.3869ZM476.791 30.2152H481.879V30.9306H478.421V31.9879H477.705V30.9306H476.791V30.2152ZM474.016 36.3281H474.732C474.732 37.7152 474.915 38.7327 475.225 39.3567C475.539 39.9767 475.912 40.2192 476.501 40.2192H482.169C482.758 40.2192 483.131 39.9767 483.445 39.3567C483.756 38.7327 483.938 37.7152 483.938 36.3281H484.654C484.654 37.7748 484.479 38.8837 484.081 39.6746C483.684 40.4695 482.996 40.9346 482.169 40.9346H476.501C475.674 40.9346 474.986 40.4695 474.589 39.6746C474.191 38.8837 474.016 37.7748 474.016 36.3281Z" fill="#00264B"/>
<g clip-path="url(#clip1_0_1)">
<path d="M574.783 105.067C574.783 105.067 574.416 105.253 573.75 105.076L571.657 104.594L571.611 90.6626L576.444 84.457L579.546 85.3837L580.633 87.638L580.189 100.325L574.783 105.067Z" fill="#2F2F2F"/>
<path d="M587.539 87.2077C587.542 87.2054 587.544 87.2077 587.546 87.2031C587.546 87.2031 586.441 81.0542 580.919 80.8231C579.768 80.7756 578.894 80.9613 578.23 81.231C577.607 79.6314 575.702 78.4442 574.027 78.5938C573.894 78.6051 573.762 78.6255 573.633 78.6549C572.949 78.809 572.024 79.1828 571.487 79.6428C571.139 79.9418 570.812 80.2885 570.565 80.6759C570.55 80.7008 570.513 80.7665 570.47 80.8458C569.487 80.6804 568.506 80.5988 567.557 80.6555C566.399 80.7257 565.058 81.0497 564.049 81.6478C562.894 82.3343 561.634 83.5102 560.936 84.6679C559.53 87.0083 559.251 89.9242 559.158 92.6112C559.079 94.8224 559.092 97.0224 559.303 99.2268C559.385 100.072 559.405 100.978 559.733 101.776C560.261 103.067 561.7 103.613 562.894 104.1C564.496 104.753 566.161 105.201 567.806 105.731C568.889 106.083 569.99 106.513 571.148 106.4C571.608 106.354 572.049 106.182 572.357 105.818C573.055 104.995 572.738 103.488 572.709 102.498C572.668 101.187 572.623 99.8725 572.647 98.5607C572.693 95.9258 572.987 93.2614 573.975 90.8032C574.417 89.7067 575.026 88.6803 575.794 87.7877C576.447 87.0264 577.67 86.2674 578.697 86.2629C580.298 86.2561 580.058 88.0392 579.947 89.4506L577.684 90.2935C577.684 90.2935 575.335 90.9799 574.648 92.1717C573.95 93.3792 573.95 95.7106 573.95 95.7106C573.95 95.7106 573.952 103.169 573.952 104.145C573.952 105.541 575.112 104.963 575.112 104.963L581.411 101.828C584.907 100.294 586.978 96.431 587.641 92.831C587.92 91.3379 588.051 89.1403 587.539 87.2077ZM581.409 88.9069C581.425 87.6087 581.311 86.306 580.638 85.1822L580.654 85.146C580.718 84.8197 580.892 84.6113 581.119 84.4731C582.188 84.976 583.112 85.5583 583.559 86.6775C584.304 88.5444 584.164 90.7035 584.003 91.8522C583.742 93.7168 582.734 95.962 581.413 97.3781L581.409 88.9069Z" fill="#58718F"/>
<path d="M576.482 82.6016C575.825 82.3637 575.144 82.1213 574.452 81.8925C574.679 81.4099 575.132 80.9432 575.667 80.8956C576.371 80.8344 576.779 81.3487 577.072 81.931C576.75 82.2096 576.564 82.4679 576.482 82.6016ZM586.669 92.7924C586.157 95.8578 584.387 98.9685 581.415 100.65V98.6762C583.393 97.1039 584.507 94.3693 584.87 92.124C585.115 90.6038 585.04 88.925 584.718 87.4115C584.695 87.3096 584.67 87.2099 584.641 87.1102C584.344 86.0793 583.735 85.2637 582.865 84.6678C582.835 84.6203 582.776 84.575 582.763 84.5296C582.665 84.2215 583.388 84.3348 583.814 84.4209H583.816C583.864 84.4322 583.907 84.439 583.945 84.4481C584.301 84.5432 584.632 84.7086 584.96 84.874C585.52 85.2773 585.844 85.6443 585.894 85.7055C587.163 87.6403 587.031 90.6264 586.669 92.7924ZM562.037 101.332C561.937 101.497 561.783 101.61 561.557 101.622C560.573 101.665 560.544 100.289 560.906 99.6753C561.088 99.3695 561.52 99.2721 561.781 99.5439C562.127 99.9064 562.3 100.892 562.037 101.332ZM570.304 104.145C570.195 104.327 570.028 104.449 569.781 104.46C568.709 104.508 568.68 103.01 569.074 102.344C569.273 102.011 569.742 101.905 570.023 102.199C570.402 102.596 570.59 103.67 570.304 104.145ZM565.499 83.961L563.926 83.5056C563.541 83.8163 563.183 84.1589 562.855 84.5296L564.454 84.9918C564.828 84.5251 565.195 84.1898 565.499 83.961ZM563.686 86.1835L562.028 85.7032C561.271 87.0921 560.922 88.7256 560.752 90.4135L562.538 90.93C562.637 88.8298 563.106 87.2914 563.686 86.1835Z" fill="white"/>
</g>
<path d="M428.873 198.428L424.65 197.307L425.418 194.482C425.48 194.26 425.628 194.071 425.828 193.957C426.029 193.842 426.267 193.812 426.489 193.872L429.02 194.551C429.13 194.581 429.234 194.631 429.325 194.7C429.415 194.77 429.491 194.856 429.548 194.955C429.606 195.053 429.643 195.163 429.658 195.276C429.673 195.389 429.665 195.504 429.635 195.614L428.873 198.428ZM421.038 211.176C420.99 211.021 420.987 210.855 421.029 210.698L424.182 199.042L428.403 200.163L425.25 211.819C425.208 211.977 425.122 212.119 425.002 212.23L422.477 214.564C422.444 214.594 422.405 214.615 422.362 214.626C422.319 214.636 422.274 214.635 422.232 214.624C422.189 214.613 422.15 214.591 422.118 214.56C422.086 214.53 422.062 214.492 422.049 214.45L421.038 211.176ZM436.6 200.773C432.7 200.773 431.4 199.473 431.4 195.574C435.3 195.574 436.6 196.874 436.6 200.773ZM434.173 214.61C431.799 214.973 428.755 211.653 428.072 208.024L429.613 202.333C430.305 201.726 431.178 201.409 432.073 201.409C433.042 201.404 433.989 201.7 434.783 202.256C435.063 202.445 435.393 202.544 435.73 202.541C436.067 202.538 436.395 202.433 436.671 202.239C437.403 201.697 438.291 201.406 439.202 201.409C440.536 201.409 442.05 202.256 442.755 203.49C445.417 208.163 440.685 215.117 437.305 214.611C437.151 214.58 437.002 214.526 436.863 214.45C436.514 214.272 436.127 214.178 435.735 214.178C435.343 214.178 434.956 214.272 434.607 214.45C434.471 214.524 434.325 214.578 434.173 214.61Z" fill="#58718F"/>
<circle cx="534.201" cy="201.201" r="25.2007" fill="#F2DF85"/>
<path d="M534.005 193.912L531.294 206.633C531.078 207.645 531.196 208.024 531.94 208.751L534.947 211.69C535.344 212.078 535.541 212.272 535.788 212.272C536.035 212.272 536.232 212.078 536.629 211.69L539.636 208.751C540.38 208.024 540.498 207.645 540.282 206.633L537.572 193.912M532.41 190.612C532.332 190.01 532.294 189.71 532.47 189.516C532.647 189.322 532.959 189.322 533.583 189.322H537.994C538.617 189.322 538.929 189.322 539.106 189.517C539.282 189.71 539.244 190.01 539.166 190.612L539.108 191.065C538.944 192.336 538.863 192.972 538.454 193.384C538.387 193.452 538.315 193.514 538.238 193.569C537.767 193.912 537.107 193.912 535.788 193.912C534.468 193.912 533.809 193.912 533.338 193.569C533.261 193.513 533.189 193.452 533.123 193.385C532.713 192.972 532.632 192.336 532.469 191.065L532.41 190.612Z" stroke="#00264B" stroke-width="1.5" stroke-linecap="round" stroke-linejoin="round"/>
<path d="M531.771 204.24C531.073 205.035 530.483 205.387 530.05 205.387C529.494 205.387 528.493 203.987 528.049 202.972C527.84 202.497 527.736 202.258 527.756 201.957C527.777 201.656 527.914 201.436 528.187 200.996C529.731 198.506 532.362 196.23 534.067 193.912" stroke="#00264B" stroke-width="1.5" stroke-linecap="round" stroke-linejoin="round"/>
<defs>
<clipPath id="clip0_0_1">
<rect width="593" height="254" fill="white"/>
</clipPath>
<clipPath id="clip1_0_1">
<rect width="29" height="29" fill="white" transform="translate(559 78)"/>
</clipPath>
</defs>
</svg>
